<?xml version="1.0" encoding="UTF-8"?>
<!DOCTYPE svg PUBLIC "-//W3C//DTD SVG 1.1//EN" "http://www.w3.org/Graphics/SVG/1.1/DTD/svg11.dtd">
<!-- Creator: CorelDRAW 2021 (64-Bit) -->
<svg xmlns="http://www.w3.org/2000/svg" xml:space="preserve" width="55mm" height="70mm" version="1.1" style="shape-rendering:geometricPrecision; text-rendering:geometricPrecision; image-rendering:optimizeQuality; fill-rule:evenodd; clip-rule:evenodd"
viewBox="0 0 5500 7000"
 xmlns:xlink="http://www.w3.org/1999/xlink"
 xmlns:xodm="http://www.corel.com/coreldraw/odm/2003">
 <defs>
  <style type="text/css">
   <![CDATA[
    .fil2 {fill:#663300}
    .fil1 {fill:#FF6633}
    .fil0 {fill:#FFB11A}
    .fil3 {fill:#FFCC00}
   ]]>
  </style>
 </defs>
 <g id="__x0023_Layer_x0020_1">
  <metadata id="CorelCorpID_0Corel-Layer"/>
  <g id="_1841352770384">
   <path class="fil0" d="M1071.15 2576.25c124.68,-65.34 265.03,-104.58 413.96,-110.74 0,986.41 79.24,964.86 -413.96,110.74z"/>
   <path class="fil0" d="M696.98 2920.38c77.51,-121.87 181.14,-225.5 303.07,-303 493.23,854.28 551.18,796.18 -303.07,303z"/>
   <path class="fil0" d="M545.16 3405.48c6.13,-148.93 45.4,-289.32 110.72,-413.96 854.18,493.15 875.64,413.96 -110.72,413.96z"/>
   <path class="fil0" d="M655.88 3901.59c-65.32,-124.64 -104.59,-265.01 -110.72,-413.92 986.36,0 964.86,-79.19 110.72,413.92z"/>
   <path class="fil0" d="M1000.05 4275.78c-121.89,-77.51 -225.56,-181.14 -303.07,-303.01 854.32,-493.25 796.27,-551.25 303.07,303.01z"/>
   <path class="fil0" d="M1485.11 4427.62c-148.93,-6.11 -289.35,-45.44 -413.96,-110.74 493.2,-854.14 413.96,-875.65 413.96,110.74z"/>
   <path class="fil0" d="M2507.24 3487.67c-6.13,148.91 -45.41,289.28 -110.72,413.92 -854.08,-493.11 -875.71,-413.92 110.72,-413.92z"/>
   <path class="fil0" d="M2396.52 2991.52c65.31,124.64 104.59,265.03 110.72,413.96 -986.36,0 -964.87,79.19 -110.72,-413.96z"/>
   <path class="fil0" d="M2052.42 2617.38c121.85,77.53 225.51,181.13 302.99,303 -854.24,493.15 -796.26,551.28 -302.99,-303z"/>
   <path class="fil0" d="M1567.28 2465.51c149,6.16 289.32,45.4 413.96,110.74 -493.13,854.12 -413.96,875.67 -413.96,-110.74z"/>
   <path class="fil1" d="M1427.69 2115.43c664.76,0 1203.54,538.85 1203.54,1203.51 0,116.47 -16.61,229.07 -47.47,335.61 13.85,-68.75 21.15,-139.84 21.15,-212.64 0,-591.91 -479.84,-1071.68 -1071.77,-1071.68 -591.9,0 -1071.67,479.77 -1071.67,1071.68 0,591.89 479.77,1071.76 1071.67,1071.76 16.85,0 33.55,-0.47 50.23,-1.23 -50.95,6.59 -102.87,9.99 -155.68,9.99 -664.67,0 -1203.45,-538.81 -1203.45,-1203.49 0,-664.66 538.78,-1203.51 1203.45,-1203.51z"/>
   <path class="fil2" d="M3748.37 3247.32l-214.56 3066.02c-29.32,420.06 -104.35,401.18 -601.69,401.18l-573.09 0c-531.78,0 -600.41,28.22 -630.42,-401.18l-214.49 -3066.02 312.82 2411.32 45.02 644.68c2.73,38.65 14.58,213.42 45.89,241.19 41.45,36.79 382.93,26.28 441.18,26.28l573.09 0c57.88,0 368.42,9.23 410.9,-28.07 32.93,-29.01 44.65,-199.24 47.47,-239.4l14.03 -200.41 343.85 -2855.59z"/>
   <path class="fil3" d="M1787.46 4164.78c684.88,19.31 993.08,-703.24 1728.33,-538.86l-23.77 339.01 -156.85 2242.92c-2.62,37.21 -13.41,194.69 -44,221.49 -39.2,34.52 -326.49,25.97 -380.1,25.97l-530.16 0c-53.81,0 -369.8,9.75 -408.11,-24.32 -28.94,-25.7 -39.89,-187.34 -42.48,-223.14l-142.86 -2043.07z"/>
   <polygon class="fil1" points="3419.23,1083.88 5095.51,410.51 3275.91,1040.91 3275.91,3433.56 3476.55,3419.25 "/>
  </g>
 </g>
</svg>
